Coordinates
version=1
nRows=9
nColumns=63
inDegrees=yes

Units are S.I. units (second, meters, Newtons, ...)
If the header above contains a line with 'inDegrees', this indicates whether rotational values are in degrees (yes) or radians (no).

endheader
time	pelvis_tilt	pelvis_list	pelvis_rotation	pelvis_tx	pelvis_ty	pelvis_tz	hip_flexion_r	hip_adduction_r	hip_rotation_r	knee_angle_r	knee_angle_r_beta	ankle_angle_r	subtalar_angle_r	mtp_angle_r	hip_flexion_l	hip_adduction_l	hip_rotation_l	knee_angle_l	knee_angle_l_beta	ankle_angle_l	subtalar_angle_l	mtp_angle_l	L5_S1_Flex_Ext	L5_S1_Lat_Bending	L5_S1_axial_rotation	L4_L5_Flex_Ext	L4_L5_Lat_Bending	L4_L5_axial_rotation	L3_L4_Flex_Ext	L3_L4_Lat_Bending	L3_L4_axial_rotation	L2_L3_Flex_Ext	L2_L3_Lat_Bending	L2_L3_axial_rotation	L1_L2_Flex_Ext	L1_L2_Lat_Bending	L1_L2_axial_rotation	L1_T12_Flex_Ext	L1_T12_Lat_Bending	L1_T12_axial_rotation	Abs_r3	Abs_r2	Abs_r1	Abs_t1	Abs_t2	neck_flexion	neck_bending	neck_rotation	arm_flex_r	arm_add_r	arm_rot_r	elbow_flex_r	pro_sup_r	wrist_flex_r	wrist_dev_r	arm_flex_l	arm_add_l	arm_rot_l	elbow_flex_l	pro_sup_l	wrist_flex_l	wrist_dev_l
1.711864	-1.329047	-0.617649	98.204427	0.244701	0.899033	0.602366	-6.073208	0.586581	-0.817655	2.834415	0.049470	30.532857	-9.860055	0.000000	-6.538504	-1.282840	26.153606	0.276268	0.004822	24.858883	-11.590301	0.000000	-0.323998	-0.027941	0.113244	-0.601697	-0.037162	0.120321	-0.532297	-0.067936	0.120321	-0.370298	-0.067936	0.099088	-0.300865	-0.056978	0.092010	-0.185133	-0.043281	0.084933	-2.314288	-0.316076	0.629827	0.000000	0.000000	19.464650	-2.093962	-0.554517	6.732749	-9.013634	120.080694	1.915589	1.140947	1.545077	-17.993007	6.849235	-10.423864	152.403513	6.309985	13.421845	-16.534664	-6.328552
1.728814	-1.410608	-0.579462	98.010920	0.244871	0.899527	0.602299	-6.167680	0.475684	-0.841514	2.663867	0.046493	30.698879	-9.363635	0.000000	-6.573373	-1.185954	25.297915	0.280537	0.004896	25.114940	-10.696214	0.000000	-0.330079	-0.030236	0.132648	-0.612991	-0.040213	0.140938	-0.542288	-0.073515	0.140938	-0.377248	-0.073515	0.116067	-0.306512	-0.061656	0.107776	-0.188607	-0.046835	0.099486	-2.357725	-0.342030	0.737746	0.000000	0.000000	19.401941	-2.170770	-0.928047	7.016921	-9.057700	119.484591	2.027746	1.167448	1.699549	-18.361180	6.897467	-10.181907	154.488927	5.683373	14.315417	-16.876916	-5.811564
1.745763	-1.475980	-0.547380	97.826972	0.245017	0.899951	0.602322	-6.237314	0.377502	-0.995883	2.518502	0.043956	30.913386	-8.767260	0.000000	-6.592082	-1.099762	24.515588	0.285464	0.004982	25.456825	-9.906120	0.000000	-0.336892	-0.031006	0.172733	-0.625641	-0.041238	0.183529	-0.553479	-0.075388	0.183529	-0.385033	-0.075388	0.151142	-0.312838	-0.063227	0.140346	-0.192500	-0.048028	0.129550	-2.406383	-0.350746	0.960692	0.000000	0.000000	19.412952	-2.250044	-1.309691	7.194039	-9.098018	119.047829	2.100943	1.201331	1.632282	-18.655050	7.003444	-9.937495	156.849487	5.074169	15.177969	-17.082155	-5.328535
1.762712	-1.518236	-0.514045	97.681167	0.245121	0.900283	0.602406	-6.302574	0.309398	-1.191552	2.379189	0.041525	31.127184	-8.230186	0.000000	-6.608985	-1.040923	23.736087	0.277469	0.004843	25.903308	-9.051112	0.000000	-0.344823	-0.028893	0.217415	-0.640371	-0.038428	0.231004	-0.566510	-0.070251	0.231004	-0.394099	-0.070251	0.190238	-0.320203	-0.058919	0.176650	-0.197032	-0.044756	0.163061	-2.463038	-0.326846	1.209198	0.000000	0.000000	19.518387	-2.279092	-1.536947	7.280810	-9.131776	118.937092	2.100729	1.177601	1.421716	-18.850031	7.130411	-9.709480	159.355118	4.471628	16.274353	-17.188290	-4.873696
1.779661	-1.538005	-0.486431	97.560043	0.245196	0.900509	0.602564	-6.340083	0.264504	-1.467250	2.280360	0.039800	31.368476	-7.664002	0.000000	-6.603910	-1.003192	22.887337	0.290561	0.005071	26.458157	-8.052421	0.000000	-0.351299	-0.023422	0.266187	-0.652397	-0.031151	0.282824	-0.577149	-0.056947	0.282824	-0.401499	-0.056947	0.232914	-0.326216	-0.047761	0.216277	-0.200732	-0.036280	0.199640	-2.509292	-0.264949	1.480453	0.000000	0.000000	19.691333	-2.280201	-1.575876	7.311676	-9.185321	118.933505	2.112742	1.214908	1.078973	-18.912266	7.317760	-9.491069	161.862288	3.985142	17.685678	-17.239116	-4.398737
1.796610	-1.533468	-0.469368	97.458841	0.245265	0.900626	0.602765	-6.354120	0.251038	-1.752011	2.205259	0.038489	31.552736	-7.217519	0.000000	-6.585178	-0.991681	22.158924	0.304486	0.005314	27.018724	-7.177829	0.000000	-0.355196	-0.014077	0.321386	-0.659634	-0.018723	0.341473	-0.583551	-0.034228	0.341473	-0.405953	-0.034228	0.281213	-0.329835	-0.028707	0.261126	-0.202959	-0.021806	0.241040	-2.537127	-0.159246	1.787454	0.000000	0.000000	19.954758	-2.262661	-1.416734	7.267570	-9.247601	119.046865	2.089506	1.260391	0.628760	-18.838282	7.557115	-9.261400	164.656635	3.573300	18.904171	-17.169630	-3.941022
1.813559	-1.522292	-0.473153	97.404733	0.245354	0.900622	0.603054	-6.326081	0.248237	-2.186875	2.179403	0.038038	31.754671	-6.680686	0.000000	-6.538809	-0.992883	21.465461	0.318800	0.005564	27.599468	-6.283805	0.000000	-0.356389	-0.004104	0.378962	-0.661849	-0.005458	0.402648	-0.585511	-0.009978	0.402648	-0.407317	-0.009978	0.331592	-0.330943	-0.008368	0.307907	-0.203641	-0.006357	0.284222	-2.545649	-0.046423	2.107675	0.000000	0.000000	20.316390	-2.198705	-1.115858	7.164591	-9.306419	119.314059	2.031650	1.315760	0.064161	-18.636765	7.844998	-9.062287	167.433501	3.235902	20.333308	-16.971604	-3.533593
1.830508	-1.492949	-0.493322	97.383698	0.245433	0.900531	0.603422	-6.269020	0.267612	-2.649041	2.183994	0.038118	31.900582	-6.204893	0.000000	-6.470258	-1.015538	20.802237	0.335225	0.005851	28.157018	-5.400908	0.000000	-0.355404	0.009094	0.432273	-0.660020	0.012095	0.459290	-0.583893	0.022112	0.459290	-0.406191	0.022112	0.378239	-0.330028	0.018545	0.351222	-0.203078	0.014087	0.324205	-2.538612	0.102877	2.404171	0.000000	0.000000	20.734015	-2.091537	-0.613981	7.036250	-9.378458	119.880390	1.937906	1.357559	-0.639377	-18.308363	8.144111	-8.893625	169.756373	3.007658	21.552380	-16.628717	-3.231129
1.847458	-1.440842	-0.518811	97.352168	0.245558	0.900371	0.603823	-6.204925	0.315693	-3.017802	2.194951	0.038309	31.935154	-5.908403	0.000000	-6.401359	-1.060841	20.233512	0.352249	0.006148	28.653719	-4.700226	0.000000	-0.354376	0.026031	0.492156	-0.658112	0.034621	0.522915	-0.582205	0.063291	0.522915	-0.405017	0.063291	0.430636	-0.329074	0.053082	0.399876	-0.202491	0.040322	0.369117	-2.531274	0.294465	2.737222	0.000000	0.000000	21.170021	-1.986097	0.021035	6.873849	-9.472501	120.442658	1.820655	1.391616	-1.284152	-17.965365	8.441589	-8.737442	171.512681	2.865446	22.465631	-16.147778	-2.980751
